<svg width="125" height="102" viewBox="0 0 125 102" fill="none" xmlns="http://www.w3.org/2000/svg">
<path d="M2.60001 2H16.3434C18.5367 2 20.4718 3.42651 21.1097 5.51343L42.6246 75.9005C43.2625 77.9874 45.1977 79.4139 47.3908 79.4139H95.8663C98.1456 79.4139 100.135 77.8753 100.695 75.6779L109.375 41.6561C109.935 39.4586 111.924 37.9201 114.204 37.9201H122.782" stroke="white" stroke-width="3.75648" stroke-linecap="round"/>
<path d="M73.664 21.7428C72.9344 21.0174 71.7517 21.0174 71.0221 21.7428L59.1333 33.5667C58.404 34.2923 58.404 35.4686 59.1333 36.1942C59.8629 36.9197 61.0458 36.9197 61.7754 36.1942L72.3429 25.6842L82.9107 36.1942C83.6402 36.9197 84.823 36.9197 85.5525 36.1942C86.2821 35.4686 86.2821 34.2923 85.5525 33.5667L73.664 21.7428ZM74.2112 57.7381V23.0566H70.4749V57.7381H74.2112Z" fill="white"/>
<path d="M59.2661 99.8512C62.3613 99.8512 64.8705 97.3557 64.8705 94.2774C64.8705 91.1991 62.3613 88.7036 59.2661 88.7036C56.1709 88.7036 53.6618 91.1991 53.6618 94.2774C53.6618 97.3557 56.1709 99.8512 59.2661 99.8512Z" stroke="white" stroke-width="3.00518"/>
<path d="M86.6652 99.8512C89.7604 99.8512 92.2695 97.3557 92.2695 94.2774C92.2695 91.1991 89.7604 88.7036 86.6652 88.7036C83.57 88.7036 81.0608 91.1991 81.0608 94.2774C81.0608 97.3557 83.57 99.8512 86.6652 99.8512Z" stroke="white" stroke-width="3.00518"/>
</svg>
