<svg width="21" height="20" viewBox="0 0 21 20" fill="none" xmlns="http://www.w3.org/2000/svg">
<path d="M16.0189 9.16667H4.27443C3.34782 9.16667 2.59665 9.91286 2.59665 10.8333V16.6667C2.59665 17.5871 3.34782 18.3333 4.27443 18.3333H16.0189C16.9455 18.3333 17.6967 17.5871 17.6967 16.6667V10.8333C17.6967 9.91286 16.9455 9.16667 16.0189 9.16667Z" stroke="white" stroke-linecap="round" stroke-linejoin="round"/>
<path d="M5.95221 9.16667V5.83333C5.95221 4.72827 6.39412 3.66846 7.18073 2.88706C7.96734 2.10565 9.03422 1.66667 10.1467 1.66667C11.2591 1.66667 12.326 2.10565 13.1126 2.88706C13.8992 3.66846 14.3411 4.72827 14.3411 5.83333V9.16667" stroke="white" stroke-linecap="round" stroke-linejoin="round"/>
</svg>
